<?xml version="1.0" encoding="UTF-8" standalone="no"?>
<!DOCTYPE svg PUBLIC "-//W3C//DTD SVG 1.1//EN" "http://www.w3.org/Graphics/SVG/1.1/DTD/svg11.dtd">
<svg width="100%" height="100%" viewBox="0 0 128 128" version="1.1" xmlns="http://www.w3.org/2000/svg" xmlns:xlink="http://www.w3.org/1999/xlink" xml:space="preserve" xmlns:serif="http://www.serif.com/" style="fill-rule:evenodd;clip-rule:evenodd;stroke-linejoin:round;stroke-miterlimit:2;">
    <g id="Artboard1">
        <g>
            <path d="M111.134,56.833c1.468,-0.527 3.086,-0.531 4.572,0.01l7.9,2.877c3.252,1.184 5.072,4.644 4.206,7.994l-0.355,1.374c-2.042,7.905 -5.402,13.318 -9.428,16.611l1.198,1.124l1.573,2.158l0.667,2.496l-0.261,2.571l-1.209,2.381c-4.806,6.23 -9.828,9.676 -14.626,10.915c-5.347,1.38 -10.158,0.7 -14.435,-2.018c-1.653,0.165 -3.212,0.113 -4.675,-0.126c-1.214,-0.198 -2.354,-0.492 -3.419,-0.88l0.161,0.644l0.248,0.993c0.648,2.591 -0.3,5.319 -2.415,6.95l-13.865,10.692c-2.938,2.266 -7.158,1.721 -9.424,-1.217l-2.478,-3.214l-6.776,1.749l-2.846,0.15l-2.587,-0.916l-2.054,-1.821l-1.246,-2.562l-0.859,-3.329l-0.203,-2.379l0.589,-2.314c1.409,-3.185 2.685,-6.705 3.832,-10.556l-4.224,-0.689l-2.665,-1.008l-1.999,-1.88l-1.147,-2.494l-0.109,-2.847l0.456,-2.797l0.772,-2.259l1.47,-1.881c0.825,-0.752 1.651,-1.551 2.478,-2.395l-0.941,-1.644l-0.368,-2.72l0.728,-2.755l1.033,-2.094l1.397,-1.936l1.956,-1.369c0.692,-0.328 1.392,-0.682 2.1,-1.061l0.873,-4.53l-3.23,-17.258c-4.301,-3.283 -15.319,-9.446 -15.319,-9.446c-0.635,0.01 -1.235,0.276 -1.818,0.725c-1.665,1.284 -2.224,3.498 -2.463,6.306l-0.146,1.708c-0.16,1.883 -1.106,3.611 -2.605,4.761c-1.499,1.15 -3.413,1.615 -5.273,1.283l-8.365,-1.496c-3.413,-0.611 -5.802,-3.719 -5.513,-7.175l0.119,-1.418c1.079,-12.891 5.548,-21.7 12.309,-26.913c5.704,-4.399 11.477,-5.893 17.136,-5.079c1.262,0.181 2.583,0.482 3.959,0.914c2.476,-1.663 5.071,-2.827 7.768,-3.523c6.434,-1.661 11.874,-0.85 16.378,1.893l0.102,0.063c5.232,-2.535 10.183,-3.277 14.771,-2.528c5.795,0.946 9.891,3.564 12.558,7.386c0.324,0.464 0.637,0.958 0.936,1.482c1.686,0.335 3.266,0.875 4.742,1.603c4.695,2.315 7.483,5.634 8.762,9.587c0.147,0.453 0.278,0.927 0.391,1.421c1.761,0.868 3.281,1.967 4.578,3.264c3.33,3.33 4.722,6.975 4.668,10.713c-0.013,0.892 -0.11,1.846 -0.304,2.857c0.293,0.409 0.564,0.829 0.814,1.261c2.138,3.704 2.477,7.232 1.552,10.498c-0.155,0.546 -0.354,1.111 -0.601,1.689c0.194,0.469 0.36,0.944 0.499,1.424Zm-29.541,20.484l0.131,0.045l0.03,-0.111l-0.009,-0.013l-0.009,-0c-0.047,0.027 -0.095,0.053 -0.143,0.079Zm0.161,-0.066l0.056,0.088l0.004,-0.086l-0.01,-0.015l-0.047,-0l-0.003,0.013Zm-0.297,0.019l0.063,-0.032l-0.044,0l-0.067,0.016l0.048,0.016Z" style="fill:#4d3852;"/>
            <path d="M81.065,67.244c0.516,1.298 1.262,2.695 2.239,4.19l5.74,8.852c1.979,0.556 3.428,0.844 4.349,0.863c0.92,0.02 1.609,-0.367 2.067,-1.161c0.424,-0.733 0.465,-1.641 0.123,-2.723l1.065,-0.231c0.615,1.942 0.587,3.496 -0.085,4.66c-0.469,0.811 -1.063,1.307 -1.783,1.489c-0.721,0.183 -1.672,0.133 -2.856,-0.147c-1.183,-0.281 -3.379,-0.98 -6.587,-2.096c-4.183,-1.46 -6.884,-2.275 -8.103,-2.444c-1.219,-0.169 -1.988,0.022 -2.307,0.574c-0.229,0.397 -0.302,0.843 -0.221,1.339l-1.06,0.044c-0.171,-1.238 -0.06,-2.197 0.334,-2.879c0.557,-0.965 1.452,-1.369 2.683,-1.211c1.231,0.159 4.234,1.122 9.009,2.891l0.045,-0.078c-2.129,-3.185 -4.396,-6.408 -6.802,-9.672l1.516,-2.626l0.634,0.366Z" style="fill:#2f0034;fill-rule:nonzero;"/>
            <path d="M84.655,78.401c-1.924,-2.845 -3.958,-5.722 -6.102,-8.63c-0.106,-0.144 -0.116,-0.337 -0.027,-0.491l1.516,-2.627c0.124,-0.214 0.399,-0.288 0.614,-0.164l0.634,0.366c0.087,0.051 0.155,0.129 0.193,0.223c0.505,1.274 1.238,2.644 2.197,4.111l0,0.001l5.649,8.709c1.845,0.512 3.202,0.783 4.073,0.801c0.743,0.016 1.3,-0.296 1.669,-0.936c0.368,-0.637 0.38,-1.425 0.084,-2.364c-0.038,-0.121 -0.023,-0.251 0.04,-0.361c0.063,-0.109 0.17,-0.186 0.293,-0.213l1.065,-0.231c0.227,-0.049 0.453,0.083 0.523,0.304c0.663,2.092 0.6,3.765 -0.124,5.02c-0.539,0.933 -1.233,1.491 -2.062,1.7c-0.774,0.196 -1.798,0.155 -3.07,-0.146c-1.191,-0.283 -3.402,-0.985 -6.631,-2.109c-4.139,-1.445 -6.81,-2.256 -8.017,-2.423c-0.539,-0.075 -0.98,-0.077 -1.32,0.008c-0.248,0.061 -0.433,0.168 -0.536,0.346c-0.178,0.308 -0.23,0.656 -0.166,1.041c0.021,0.127 -0.014,0.257 -0.095,0.357c-0.081,0.099 -0.202,0.159 -0.33,0.165l-1.06,0.043c-0.231,0.01 -0.432,-0.158 -0.464,-0.387c-0.188,-1.361 -0.043,-2.414 0.39,-3.164c0.652,-1.129 1.69,-1.617 3.129,-1.432c1.14,0.147 3.786,0.971 7.935,2.483Zm1.45,1.002l-0.043,0.073l-0.025,0.015c-0.056,0.057 -0.127,0.099 -0.206,0.119l-0.159,0.093c-0.053,-0 -0.106,-0.01 -0.156,-0.028c-4.724,-1.749 -7.693,-2.709 -8.911,-2.866c-1.022,-0.132 -1.773,0.187 -2.236,0.99c-0.31,0.537 -0.408,1.267 -0.324,2.188l0.18,-0.008c0.007,-0.408 0.113,-0.786 0.313,-1.133c0.385,-0.667 1.286,-0.999 2.758,-0.795c1.232,0.171 3.962,0.99 8.188,2.465c3.187,1.109 5.368,1.804 6.544,2.083c1.095,0.259 1.975,0.318 2.642,0.149c0.612,-0.155 1.106,-0.589 1.504,-1.278c0.574,-0.995 0.611,-2.298 0.163,-3.909l-0.196,0.043c0.232,1.019 0.125,1.888 -0.292,2.609c-0.546,0.946 -1.368,1.408 -2.466,1.385c-0.944,-0.02 -2.431,-0.31 -4.461,-0.88c-0.105,-0.029 -0.196,-0.096 -0.255,-0.188l-5.74,-8.851c-0.959,-1.468 -1.698,-2.843 -2.221,-4.124l-0.11,-0.064l-1.145,1.983c2.345,3.189 4.558,6.339 6.639,9.452c0.092,0.138 0.101,0.315 0.023,0.462c-0.003,0.005 -0.005,0.01 -0.008,0.015Z" style="fill:#fff;"/>
            <path d="M91.315,65.324c0.134,1.144 0.43,2.415 0.888,3.814l2.682,8.271c1.457,0.865 2.549,1.403 3.278,1.615c0.728,0.212 1.36,0.051 1.894,-0.483c0.493,-0.494 0.719,-1.207 0.679,-2.142l0.896,0.044c0.076,1.677 -0.278,2.908 -1.062,3.691c-0.545,0.546 -1.124,0.814 -1.737,0.805c-0.612,-0.008 -1.359,-0.251 -2.242,-0.727c-0.882,-0.475 -2.481,-1.5 -4.797,-3.073c-3.018,-2.055 -4.994,-3.279 -5.929,-3.674c-0.934,-0.395 -1.587,-0.406 -1.959,-0.035c-0.267,0.267 -0.421,0.607 -0.461,1.019l-0.854,-0.192c0.128,-1.021 0.421,-1.761 0.88,-2.22c0.65,-0.65 1.448,-0.78 2.394,-0.392c0.946,0.389 3.131,1.797 6.556,4.223l0.052,-0.052c-1.016,-2.99 -2.133,-6.04 -3.352,-9.151l1.768,-1.767l0.426,0.426Z" style="fill:#0e0000;fill-rule:nonzero;"/>
            <path d="M91.639,74.768c-0.903,-2.601 -1.881,-5.247 -2.936,-7.939c-0.065,-0.166 -0.026,-0.355 0.101,-0.481l1.767,-1.768c0.175,-0.175 0.46,-0.175 0.635,0l0.427,0.427c0.071,0.071 0.117,0.165 0.128,0.265c0.131,1.118 0.421,2.359 0.869,3.726l0.001,0.001l2.629,8.11c1.339,0.788 2.347,1.285 3.028,1.484c0.558,0.162 1.042,0.039 1.451,-0.37c0.414,-0.414 0.582,-1.02 0.548,-1.804c-0.006,-0.127 0.042,-0.249 0.132,-0.338c0.089,-0.089 0.212,-0.137 0.338,-0.131l0.897,0.044c0.232,0.011 0.417,0.197 0.427,0.428c0.083,1.835 -0.336,3.172 -1.193,4.03c-0.645,0.645 -1.337,0.947 -2.061,0.937c-0.668,-0.01 -1.487,-0.262 -2.449,-0.781c-0.889,-0.48 -2.502,-1.512 -4.836,-3.097c-2.98,-2.029 -4.929,-3.243 -5.852,-3.632c-0.402,-0.17 -0.742,-0.265 -1.024,-0.27c-0.186,-0.003 -0.337,0.033 -0.442,0.139c-0.195,0.194 -0.303,0.444 -0.332,0.745c-0.013,0.128 -0.08,0.244 -0.184,0.32c-0.105,0.075 -0.236,0.102 -0.362,0.074l-0.853,-0.192c-0.226,-0.05 -0.376,-0.264 -0.347,-0.493c0.143,-1.146 0.493,-1.968 1.007,-2.482c0.784,-0.784 1.743,-0.959 2.883,-0.49c0.858,0.353 2.728,1.529 5.603,3.538Zm1.15,1.367l-0.049,0.049l-0.027,0.012c-0.043,0.026 -0.09,0.046 -0.139,0.057l-0.153,0.064c-0.093,0 -0.184,-0.029 -0.26,-0.083c-3.38,-2.394 -5.533,-3.789 -6.467,-4.173c-0.752,-0.309 -1.389,-0.223 -1.906,0.294c-0.34,0.34 -0.561,0.862 -0.689,1.556c0.1,-0.307 0.264,-0.573 0.489,-0.798c0.465,-0.465 1.282,-0.556 2.452,-0.062c0.946,0.4 2.95,1.636 6.006,3.717c2.298,1.56 3.883,2.577 4.759,3.049c0.802,0.433 1.478,0.665 2.035,0.673c0.5,0.008 0.966,-0.227 1.413,-0.673c0.644,-0.645 0.942,-1.632 0.94,-2.946l-0.011,-0.001c-0.047,0.846 -0.325,1.506 -0.808,1.988c-0.659,0.659 -1.438,0.859 -2.337,0.597c-0.751,-0.218 -1.879,-0.768 -3.381,-1.66c-0.094,-0.056 -0.165,-0.144 -0.198,-0.247l-2.682,-8.271c-0.448,-1.368 -0.743,-2.616 -0.888,-3.744l-1.242,1.242c1.18,3.023 2.264,5.988 3.252,8.896c0.047,0.137 0.025,0.289 -0.06,0.406c-0.015,0.021 -0.031,0.04 -0.049,0.058Z" style="fill:#fff;"/>
            <path d="M80.664,62.487c1.012,1.36 2.325,2.763 3.94,4.209l9.506,8.571c2.495,0.03 4.284,-0.088 5.368,-0.354c1.085,-0.266 1.771,-0.936 2.059,-2.01c0.266,-0.992 0.029,-2.069 -0.711,-3.23l1.176,-0.605c1.331,2.083 1.785,3.912 1.363,5.488c-0.294,1.097 -0.835,1.866 -1.622,2.305c-0.787,0.44 -1.918,0.681 -3.393,0.724c-1.475,0.042 -4.268,-0.087 -8.379,-0.387c-5.36,-0.398 -8.781,-0.505 -10.263,-0.32c-1.482,0.184 -2.323,0.65 -2.523,1.397c-0.144,0.537 -0.09,1.083 0.161,1.638l-1.229,0.384c-0.589,-1.396 -0.76,-2.555 -0.513,-3.477c0.351,-1.308 1.272,-2.062 2.764,-2.262c1.493,-0.201 5.315,-0.015 11.467,0.558l0.028,-0.105c-3.495,-3.064 -7.165,-6.13 -11.009,-9.199l0.952,-3.554l0.858,0.229Z" style="fill:#130034;fill-rule:nonzero;"/>
            <path d="M88.661,74.558c-3.217,-2.796 -6.579,-5.595 -10.087,-8.395c-0.14,-0.112 -0.2,-0.295 -0.154,-0.467l0.953,-3.555c0.064,-0.239 0.31,-0.381 0.55,-0.317l0.858,0.23c0.097,0.026 0.183,0.084 0.244,0.165c0.996,1.339 2.289,2.719 3.878,4.142l0.001,0.001l9.382,8.457c2.353,0.023 4.048,-0.088 5.085,-0.342c0.913,-0.224 1.49,-0.787 1.732,-1.69c0.237,-0.884 0.003,-1.838 -0.656,-2.873c-0.068,-0.107 -0.087,-0.237 -0.054,-0.359c0.033,-0.122 0.115,-0.224 0.228,-0.282l1.175,-0.604c0.206,-0.106 0.459,-0.038 0.584,0.157c1.416,2.216 1.868,4.17 1.418,5.846c-0.33,1.234 -0.951,2.088 -1.836,2.582c-0.836,0.466 -2.034,0.734 -3.599,0.78c-1.483,0.043 -4.292,-0.086 -8.425,-0.388c-5.314,-0.395 -8.706,-0.506 -10.175,-0.323c-0.671,0.084 -1.199,0.224 -1.58,0.435c-0.297,0.165 -0.494,0.369 -0.564,0.633c-0.118,0.439 -0.069,0.884 0.136,1.337c0.053,0.117 0.054,0.252 0.001,0.369c-0.053,0.118 -0.153,0.207 -0.276,0.245l-1.229,0.384c-0.22,0.069 -0.458,-0.041 -0.547,-0.254c-0.638,-1.512 -0.801,-2.77 -0.533,-3.769c0.399,-1.489 1.437,-2.362 3.138,-2.59c1.404,-0.189 4.855,-0.045 10.352,0.445Zm1.635,0.572l-0.027,0.1l-0.026,0.02c-0.057,0.09 -0.144,0.157 -0.245,0.189l-0.163,0.126l-0.042,-0.002c-6.097,-0.568 -9.885,-0.759 -11.365,-0.56c-1.284,0.173 -2.088,0.808 -2.39,1.933c-0.204,0.761 -0.079,1.696 0.342,2.809l0.383,-0.12c-0.139,-0.495 -0.141,-0.984 -0.012,-1.466c0.234,-0.875 1.167,-1.511 2.901,-1.727c1.495,-0.186 4.946,-0.084 10.352,0.318c4.088,0.299 6.866,0.428 8.333,0.386c1.384,-0.04 2.448,-0.254 3.187,-0.667c0.69,-0.385 1.149,-1.068 1.407,-2.029c0.371,-1.387 -0.01,-2.977 -1.093,-4.783l-0.383,0.197c0.617,1.129 0.778,2.186 0.516,3.165c-0.334,1.245 -1.129,2.022 -2.386,2.33c-1.107,0.272 -2.934,0.398 -5.48,0.367c-0.109,-0.001 -0.214,-0.043 -0.295,-0.116l-9.507,-8.571c-1.589,-1.423 -2.891,-2.807 -3.905,-4.148l-0.274,-0.073l-0.76,2.836c3.766,3.012 7.364,6.022 10.795,9.029c0.13,0.114 0.182,0.292 0.137,0.457Z" style="fill:#fff;"/>
            <path d="M73.123,60.99c1.613,1.276 3.592,2.507 5.938,3.695l13.834,7.06c2.932,-0.748 4.992,-1.448 6.18,-2.101c1.187,-0.652 1.781,-1.653 1.781,-3.002c0,-1.246 -0.616,-2.433 -1.847,-3.562l1.187,-1.078c2.214,2.023 3.321,4.025 3.321,6.004c0,1.378 -0.392,2.449 -1.176,3.211c-0.785,0.762 -2.035,1.4 -3.75,1.913c-1.716,0.513 -5.029,1.239 -9.941,2.178c-6.407,1.217 -10.45,2.166 -12.129,2.848c-1.679,0.681 -2.518,1.491 -2.518,2.43c-0,0.674 0.234,1.297 0.704,1.869l-1.32,0.836c-1.129,-1.452 -1.693,-2.756 -1.693,-3.915c-0,-1.642 0.843,-2.815 2.529,-3.519c1.686,-0.703 6.224,-1.686 13.613,-2.947l0,-0.131c-5.058,-2.493 -10.322,-4.934 -15.791,-7.324l0,-4.465l1.078,0Z" style="fill:#00153d;fill-rule:nonzero;"/>
            <path d="M86.593,72.669c-4.731,-2.312 -9.64,-4.58 -14.727,-6.802c-0.164,-0.072 -0.27,-0.234 -0.27,-0.412l0,-4.465c0,-0.248 0.201,-0.449 0.449,-0.449l1.078,0c0.101,0 0.199,0.034 0.279,0.097c1.592,1.259 3.546,2.474 5.862,3.646l0.001,0.001l13.683,6.982c2.795,-0.718 4.766,-1.387 5.91,-2.016c1.032,-0.567 1.549,-1.436 1.549,-2.609c-0,-1.134 -0.581,-2.204 -1.702,-3.231c-0.093,-0.086 -0.146,-0.206 -0.146,-0.332c0.001,-0.127 0.054,-0.247 0.148,-0.332l1.187,-1.078c0.172,-0.155 0.434,-0.155 0.605,0.001c2.331,2.13 3.467,4.252 3.467,6.336c0,1.519 -0.448,2.693 -1.312,3.533c-0.825,0.801 -2.132,1.482 -3.934,2.022c-1.724,0.515 -5.052,1.245 -9.986,2.188c-6.361,1.208 -10.377,2.146 -12.044,2.823c-0.774,0.314 -1.358,0.652 -1.746,1.026c-0.318,0.307 -0.492,0.632 -0.492,0.988c0,0.572 0.204,1.099 0.602,1.584c0.081,0.1 0.116,0.229 0.096,0.356c-0.02,0.128 -0.094,0.24 -0.203,0.309l-1.32,0.835c-0.195,0.124 -0.453,0.079 -0.595,-0.103c-1.206,-1.551 -1.788,-2.953 -1.788,-4.191c0,-1.83 0.926,-3.148 2.806,-3.933c1.607,-0.671 5.788,-1.6 12.543,-2.774Zm1.692,0.113l0,0.125l-0.028,0.029c-0.046,0.122 -0.142,0.217 -0.26,0.262l-0.161,0.162l0.076,-0.007c-7.336,1.252 -11.842,2.22 -13.516,2.919c-1.493,0.623 -2.253,1.651 -2.253,3.104c-0,0.992 0.462,2.092 1.353,3.314l0.568,-0.359c-0.342,-0.544 -0.51,-1.127 -0.51,-1.745c-0,-1.07 0.883,-2.069 2.798,-2.846c1.691,-0.687 5.761,-1.648 12.214,-2.874c4.889,-0.934 8.188,-1.655 9.896,-2.166c1.628,-0.487 2.821,-1.081 3.566,-1.805c0.704,-0.685 1.04,-1.652 1.04,-2.889c0,-1.784 -0.975,-3.573 -2.876,-5.393l-0.527,0.477c1.104,1.13 1.64,2.319 1.64,3.552c0,1.526 -0.671,2.658 -2.014,3.396c-1.208,0.664 -3.302,1.381 -6.285,2.142c-0.106,0.027 -0.218,0.015 -0.316,-0.035l-13.833,-7.06c-2.316,-1.172 -4.279,-2.388 -5.889,-3.646l-0.473,0l-0,3.722c5.379,2.355 10.559,4.76 15.54,7.215c0.157,0.077 0.252,0.237 0.25,0.406Z" style="fill:#fff;"/>
            <path d="M66.461,60.28c2.291,0.989 4.997,1.81 8.12,2.466l18.429,3.929c3.202,-1.797 5.396,-3.265 6.583,-4.402c1.187,-1.138 1.569,-2.497 1.145,-4.078c-0.391,-1.461 -1.486,-2.659 -3.284,-3.595l1.054,-1.636c3.23,1.676 5.156,3.674 5.777,5.994c0.433,1.615 0.31,2.992 -0.37,4.132c-0.68,1.14 -1.945,2.28 -3.794,3.42c-1.849,1.14 -5.505,3.032 -10.967,5.674c-7.127,3.438 -11.567,5.82 -13.32,7.146c-1.754,1.326 -2.483,2.539 -2.188,3.639c0.211,0.791 0.682,1.447 1.411,1.97l-1.284,1.394c-1.779,-1.347 -2.85,-2.699 -3.214,-4.056c-0.515,-1.925 0.105,-3.564 1.859,-4.918c1.755,-1.355 6.765,-3.931 15.03,-7.729l-0.042,-0.155c-6.711,-1.333 -13.646,-2.541 -20.806,-3.624l-1.402,-5.233l1.263,-0.338Z" style="fill:#005a6b;fill-rule:nonzero;"/>
            <path d="M86.223,69.7c-6.363,-1.247 -12.926,-2.382 -19.69,-3.405c-0.177,-0.027 -0.321,-0.155 -0.367,-0.328l-1.402,-5.232c-0.064,-0.24 0.078,-0.486 0.318,-0.55l1.263,-0.339c0.097,-0.026 0.201,-0.018 0.294,0.022c2.266,0.978 4.945,1.79 8.034,2.438l0.001,0l18.265,3.894c3.075,-1.733 5.192,-3.148 6.343,-4.251c1.059,-1.015 1.4,-2.227 1.022,-3.638c-0.362,-1.352 -1.393,-2.446 -3.057,-3.313c-0.112,-0.058 -0.195,-0.161 -0.227,-0.283c-0.032,-0.122 -0.012,-0.252 0.057,-0.358l1.053,-1.636c0.126,-0.195 0.379,-0.262 0.585,-0.156c3.37,1.749 5.356,3.856 6.004,6.276c0.469,1.752 0.319,3.244 -0.419,4.479c-0.708,1.188 -2.017,2.385 -3.943,3.573c-1.857,1.144 -5.525,3.043 -11.007,5.695c-7.085,3.418 -11.502,5.782 -13.245,7.101c-0.821,0.62 -1.407,1.209 -1.748,1.777c-0.293,0.486 -0.396,0.946 -0.277,1.387c0.185,0.692 0.601,1.264 1.239,1.721c0.105,0.075 0.172,0.191 0.185,0.319c0.013,0.128 -0.029,0.256 -0.116,0.35l-1.284,1.394c-0.157,0.17 -0.417,0.194 -0.602,0.054c-1.879,-1.422 -2.992,-2.864 -3.376,-4.298c-0.565,-2.107 0.097,-3.907 2.018,-5.39c1.691,-1.305 6.382,-3.743 14.079,-7.303Zm1.618,-0.337l0.04,0.147l-0.032,0.042c-0.025,0.147 -0.122,0.268 -0.251,0.329l-0.15,0.198l0.187,-0.041c-8.215,3.775 -13.198,6.33 -14.942,7.676c-1.589,1.226 -2.167,2.704 -1.7,4.447c0.321,1.197 1.24,2.377 2.73,3.564l0.678,-0.736c-0.597,-0.531 -0.992,-1.167 -1.189,-1.903c-0.177,-0.66 -0.062,-1.356 0.375,-2.083c0.388,-0.645 1.043,-1.325 1.976,-2.031c1.763,-1.334 6.227,-3.734 13.396,-7.193c5.441,-2.632 9.084,-4.515 10.926,-5.651c1.772,-1.093 2.992,-2.176 3.644,-3.268c0.623,-1.044 0.719,-2.307 0.322,-3.786c-0.571,-2.132 -2.314,-3.958 -5.189,-5.52l-0.569,0.884c1.673,0.971 2.691,2.192 3.079,3.641c0.47,1.752 0.047,3.258 -1.268,4.518c-1.204,1.154 -3.427,2.647 -6.674,4.47c-0.095,0.053 -0.207,0.07 -0.314,0.048l-18.429,-3.93c-3.09,-0.649 -5.776,-1.459 -8.06,-2.431l-0.679,0.182l1.21,4.515c7.064,1.073 13.909,2.267 20.536,3.584c0.174,0.034 0.305,0.165 0.347,0.328Z" style="fill:#fff;"/>
            <path d="M59.562,60.234c2.995,0.439 6.425,0.552 10.29,0.339l22.833,-1.182c3.188,-3.112 5.299,-5.52 6.333,-7.226c1.033,-1.706 1.054,-3.419 0.061,-5.139c-0.917,-1.589 -2.576,-2.649 -4.978,-3.182l0.721,-2.248c4.312,0.949 7.197,2.686 8.654,5.21c1.014,1.757 1.302,3.41 0.863,4.959c-0.439,1.55 -1.563,3.283 -3.372,5.2c-1.81,1.917 -5.5,5.281 -11.071,10.093c-7.273,6.268 -11.729,10.454 -13.367,12.559c-1.639,2.104 -2.113,3.755 -1.422,4.952c0.496,0.859 1.254,1.481 2.273,1.865l-1.067,2.037c-2.508,-1.02 -4.188,-2.268 -5.04,-3.745c-1.209,-2.093 -0.997,-4.209 0.634,-6.348c1.631,-2.138 6.694,-6.73 15.187,-13.777l-0.097,-0.168c-8.284,0.545 -16.791,1.307 -25.523,2.286l-3.286,-5.692l1.374,-0.793Z" style="fill:#009991;fill-rule:nonzero;"/>
            <path d="M85.969,64.951c-7.943,0.54 -16.091,1.278 -24.445,2.214c-0.177,0.02 -0.35,-0.067 -0.439,-0.222l-3.286,-5.692c-0.124,-0.214 -0.051,-0.489 0.164,-0.613l1.374,-0.793c0.088,-0.051 0.19,-0.07 0.29,-0.056c2.969,0.436 6.369,0.547 10.2,0.336l0.002,-0l22.663,-1.174c3.083,-3.018 5.133,-5.355 6.141,-7.019c0.942,-1.554 0.962,-3.115 0.057,-4.681c-0.861,-1.492 -2.431,-2.468 -4.686,-2.969c-0.123,-0.027 -0.229,-0.105 -0.292,-0.215c-0.063,-0.109 -0.077,-0.24 -0.038,-0.36l0.721,-2.248c0.07,-0.221 0.297,-0.352 0.524,-0.302c4.466,0.984 7.436,2.811 8.946,5.424c1.084,1.879 1.376,3.65 0.906,5.307c-0.454,1.603 -1.606,3.402 -3.478,5.385c-1.814,1.923 -5.515,5.299 -11.104,10.125c-7.237,6.237 -11.675,10.4 -13.306,12.495c-0.776,0.997 -1.282,1.882 -1.507,2.664c-0.198,0.69 -0.169,1.287 0.12,1.787c0.445,0.771 1.128,1.325 2.042,1.669c0.121,0.046 0.216,0.141 0.262,0.261c0.046,0.12 0.038,0.254 -0.022,0.368l-1.067,2.037c-0.107,0.205 -0.353,0.295 -0.567,0.208c-2.624,-1.067 -4.368,-2.391 -5.26,-3.936c-1.303,-2.257 -1.093,-4.54 0.666,-6.845c1.585,-2.078 6.389,-6.466 14.419,-13.155Zm0.58,-0.482c0.086,-0.071 0.172,-0.142 0.258,-0.214l0.212,0.588l0.369,-0.63l0.093,0.159l-0.387,0.678l0.287,-0.104c-8.451,7.012 -13.494,11.577 -15.117,13.705c-1.504,1.971 -1.717,3.921 -0.602,5.851c0.769,1.333 2.258,2.455 4.444,3.395l0.651,-1.241c-0.892,-0.428 -1.57,-1.051 -2.039,-1.863c-0.402,-0.696 -0.481,-1.523 -0.205,-2.484c0.249,-0.868 0.799,-1.86 1.661,-2.968c1.646,-2.115 6.121,-6.325 13.428,-12.623c5.555,-4.797 9.234,-8.15 11.038,-10.061c1.747,-1.851 2.843,-3.518 3.267,-5.014c0.408,-1.442 0.124,-2.977 -0.82,-4.613c-1.36,-2.354 -4.024,-3.973 -7.963,-4.905l-0.447,1.396c2.29,0.598 3.88,1.702 4.791,3.28c1.082,1.873 1.059,3.739 -0.066,5.597c-1.046,1.725 -3.178,4.166 -6.404,7.315c-0.078,0.076 -0.181,0.121 -0.29,0.127l-22.833,1.182c-3.831,0.211 -7.239,0.103 -10.224,-0.322l-0.85,0.491l2.915,5.049c8.636,-0.964 17.053,-1.716 25.251,-2.256c-0.242,0.016 -0.427,0.221 -0.419,0.463c0,0.008 0,0.015 0.001,0.022Z" style="fill:#fff;"/>
            <path d="M52.188,62.987c3.648,-0.426 7.704,-1.371 12.167,-2.834l26.388,-8.555c2.759,-4.648 4.476,-8.134 5.153,-10.458c0.675,-2.324 0.162,-4.338 -1.542,-6.042c-1.574,-1.574 -3.852,-2.296 -6.833,-2.166l0.139,-2.861c5.351,-0.241 9.277,0.889 11.777,3.389c1.741,1.74 2.598,3.587 2.57,5.541c-0.028,1.954 -0.802,4.338 -2.32,7.153c-1.518,2.814 -4.787,7.916 -9.805,15.305c-6.555,9.629 -10.463,15.935 -11.722,18.916c-1.259,2.981 -1.296,5.065 -0.111,6.25c0.852,0.852 1.935,1.343 3.249,1.472l-0.611,2.723c-3.259,-0.408 -5.62,-1.343 -7.083,-2.806c-2.073,-2.074 -2.49,-4.62 -1.25,-7.639c1.241,-3.018 5.732,-9.99 13.472,-20.916l-0.166,-0.166c-9.537,3.24 -19.268,6.805 -29.194,10.694l-5.639,-5.639l1.361,-1.361Z" style="fill:#009605;fill-rule:nonzero;"/>
            <path d="M84.868,60.037c-9.231,3.153 -18.644,6.609 -28.238,10.368c-0.166,0.065 -0.355,0.026 -0.482,-0.101l-5.639,-5.638c-0.175,-0.176 -0.175,-0.46 0,-0.636l1.362,-1.361c0.071,-0.071 0.165,-0.117 0.265,-0.128c3.622,-0.423 7.648,-1.362 12.079,-2.814l0.001,-0.001l26.227,-8.503c2.682,-4.53 4.359,-7.931 5.021,-10.208c0.626,-2.154 0.151,-4.02 -1.428,-5.599c-1.494,-1.495 -3.664,-2.158 -6.496,-2.035c-0.126,0.005 -0.248,-0.043 -0.338,-0.132c-0.089,-0.09 -0.136,-0.213 -0.13,-0.339l0.139,-2.861c0.011,-0.231 0.197,-0.416 0.429,-0.427c5.509,-0.248 9.541,0.946 12.115,3.52c1.84,1.84 2.73,3.8 2.701,5.865c-0.029,2.01 -0.812,4.465 -2.373,7.36c-1.523,2.822 -4.799,7.937 -9.83,15.345c-6.529,9.591 -10.425,15.868 -11.679,18.838c-0.603,1.426 -0.92,2.635 -0.937,3.632c-0.016,0.901 0.217,1.613 0.729,2.126c0.78,0.779 1.773,1.224 2.977,1.342c0.128,0.013 0.244,0.08 0.319,0.184c0.076,0.105 0.103,0.236 0.075,0.362l-0.611,2.722c-0.051,0.226 -0.265,0.376 -0.494,0.347c-3.384,-0.423 -5.826,-1.415 -7.345,-2.933c-2.207,-2.208 -2.668,-4.915 -1.348,-8.127c1.213,-2.953 5.52,-9.678 12.929,-20.168Zm0.388,-0.549c0.067,-0.096 0.136,-0.192 0.204,-0.288l0.236,0.456l0.286,-0.676l0.158,0.158l-0.314,0.77l0.367,-0.189c-7.709,10.881 -12.188,17.821 -13.423,20.827c-1.161,2.824 -0.789,5.21 1.152,7.15c1.346,1.346 3.49,2.209 6.417,2.624l0.414,-1.843c-1.202,-0.207 -2.209,-0.721 -3.022,-1.534c-0.672,-0.673 -1.013,-1.595 -0.992,-2.777c0.019,-1.087 0.35,-2.41 1.007,-3.965c1.264,-2.994 5.183,-9.327 11.765,-18.994c5.005,-7.371 8.266,-12.459 9.781,-15.266c1.475,-2.735 2.238,-5.048 2.265,-6.946c0.027,-1.842 -0.796,-3.577 -2.437,-5.218c-2.363,-2.362 -6.045,-3.434 -11.032,-3.273l-0.095,1.965c2.891,-0.037 5.113,0.746 6.679,2.312c1.828,1.829 2.38,3.99 1.655,6.485c-0.683,2.346 -2.412,5.868 -5.198,10.562c-0.056,0.093 -0.144,0.164 -0.247,0.198l-26.389,8.555c-4.431,1.452 -8.464,2.396 -12.097,2.834l-0.934,0.933l5.114,5.113c9.837,-3.85 19.484,-7.381 28.939,-10.594c-0.208,0.071 -0.334,0.282 -0.298,0.499c0.007,0.043 0.02,0.084 0.039,0.122Z" style="fill:#fff;"/>
            <path d="M44.831,72.898c4.026,-1.912 8.317,-4.579 12.874,-8l26.983,-20.12c1.358,-6.417 1.971,-11.091 1.842,-14.025c-0.13,-2.934 -1.505,-5.047 -4.128,-6.341c-2.422,-1.194 -5.32,-1.135 -8.695,0.176l-0.956,-3.341c6.055,-2.364 11.006,-2.597 14.853,-0.699c2.679,1.321 4.383,3.109 5.113,5.364c0.73,2.256 0.771,5.297 0.124,9.123c-0.647,3.826 -2.412,10.962 -5.297,21.408c-3.777,13.62 -5.808,22.389 -6.092,26.305c-0.284,3.916 0.486,6.325 2.31,7.224c1.31,0.647 2.747,0.788 4.308,0.425l0.359,3.366c-3.903,0.803 -6.981,0.649 -9.232,-0.462c-3.191,-1.574 -4.663,-4.337 -4.415,-8.289c0.248,-3.952 2.689,-13.713 7.323,-29.285l-0.257,-0.126c-9.694,7.442 -19.485,15.332 -29.372,23.671l-8.678,-4.28l1.033,-2.094Z" style="fill:#a4ff38;fill-rule:nonzero;"/>
            <path d="M81.404,56.509c-9.454,7.275 -19,14.978 -28.638,23.106c-0.137,0.115 -0.328,0.139 -0.489,0.06l-8.677,-4.28c-0.223,-0.11 -0.314,-0.379 -0.204,-0.602l1.033,-2.094c0.044,-0.091 0.118,-0.164 0.21,-0.207c4.001,-1.901 8.266,-4.552 12.797,-7.953l0.001,-0.001l26.847,-20.019c1.322,-6.28 1.924,-10.861 1.797,-13.746c-0.122,-2.757 -1.413,-4.743 -3.877,-5.958c-2.322,-1.145 -5.099,-1.065 -8.334,0.192c-0.118,0.046 -0.25,0.04 -0.363,-0.017c-0.113,-0.056 -0.197,-0.157 -0.232,-0.278l-0.956,-3.342c-0.064,-0.223 0.053,-0.457 0.268,-0.542c6.202,-2.421 11.275,-2.627 15.216,-0.683c2.805,1.383 4.577,3.267 5.341,5.629c0.747,2.309 0.802,5.42 0.14,9.336c-0.648,3.834 -2.417,10.985 -5.307,21.453c-3.764,13.575 -5.794,22.314 -6.077,26.218c-0.137,1.888 -0.027,3.413 0.344,4.574c0.342,1.07 0.906,1.815 1.717,2.214c1.219,0.602 2.555,0.728 4.007,0.39c0.125,-0.029 0.257,-0.003 0.362,0.071c0.105,0.075 0.172,0.191 0.186,0.319l0.36,3.366c0.024,0.23 -0.13,0.441 -0.356,0.488c-4.027,0.828 -7.199,0.646 -9.522,-0.499c-3.36,-1.658 -4.925,-4.559 -4.664,-8.72c0.244,-3.888 2.597,-13.38 7.07,-28.475Zm0.165,-0.556c0.035,-0.118 0.07,-0.236 0.105,-0.354l0.214,0.287l0.166,-0.685l0.243,0.12l-0.192,0.855l0.43,-0.321c-4.617,15.52 -7.057,25.247 -7.305,29.185c-0.235,3.743 1.143,6.368 4.166,7.858c2.103,1.038 4.951,1.192 8.543,0.504l-0.264,-2.468c-1.479,0.253 -2.85,0.064 -4.112,-0.559c-1.013,-0.5 -1.747,-1.409 -2.174,-2.747c-0.399,-1.247 -0.532,-2.884 -0.385,-4.912c0.285,-3.93 2.318,-12.728 6.107,-26.392c2.879,-10.425 4.642,-17.546 5.288,-21.364c0.631,-3.737 0.603,-6.706 -0.109,-8.909c-0.696,-2.15 -2.332,-3.842 -4.884,-5.101c-3.673,-1.811 -8.376,-1.602 -14.11,0.568l0.709,2.479c3.319,-1.194 6.184,-1.177 8.596,0.013c2.781,1.371 4.24,3.612 4.378,6.723c0.13,2.957 -0.483,7.67 -1.852,14.138c-0.022,0.107 -0.083,0.202 -0.171,0.267l-26.982,20.12c-4.531,3.401 -8.801,6.06 -12.809,7.978l-0.765,1.552l8.011,3.951c9.817,-8.273 19.538,-16.105 29.164,-23.495c-0.153,0.118 -0.214,0.319 -0.152,0.501c0.028,0.084 0.08,0.155 0.146,0.208Z" style="fill:#fff;"/>
            <path d="M40.306,86.63c3.993,-3.645 8.028,-8.261 12.103,-13.846l24.18,-32.91c-0.699,-7.927 -1.644,-13.569 -2.834,-16.928c-1.19,-3.358 -3.535,-5.323 -7.036,-5.895c-3.235,-0.527 -6.577,0.568 -10.028,3.286l-2.294,-3.538c6.188,-4.889 11.851,-6.914 16.988,-6.076c3.576,0.584 6.188,2.054 7.834,4.413c1.647,2.359 2.772,5.873 3.378,10.542c0.605,4.669 1.085,13.576 1.441,26.72c0.444,17.143 1.195,28.038 2.254,32.683c1.058,4.645 2.805,7.167 5.24,7.564c1.75,0.286 3.467,-0.059 5.149,-1.034l1.611,3.778c-4.245,2.315 -7.871,3.227 -10.877,2.737c-4.261,-0.696 -6.948,-3.38 -8.061,-8.054c-1.112,-4.674 -1.739,-16.866 -1.882,-36.577l-0.343,-0.056c-8.611,12.071 -17.175,24.697 -25.693,37.878l-11.586,-1.891l0.456,-2.796Z" style="fill:#ffbf04;fill-rule:nonzero;"/>
            <path d="M77.029,54.353c-8.45,11.868 -16.856,24.271 -25.216,37.208c-0.097,0.15 -0.273,0.228 -0.449,0.199l-11.587,-1.89c-0.245,-0.04 -0.411,-0.271 -0.371,-0.516l0.457,-2.797c0.016,-0.1 0.065,-0.191 0.14,-0.259c3.974,-3.627 7.988,-8.221 12.043,-13.779l0.001,-0.001l24.08,-32.774c-0.693,-7.786 -1.622,-13.335 -2.795,-16.648c-1.131,-3.191 -3.359,-5.059 -6.686,-5.601c-3.123,-0.51 -6.344,0.57 -9.677,3.195c-0.1,0.078 -0.227,0.111 -0.352,0.09c-0.124,-0.02 -0.235,-0.092 -0.303,-0.198l-2.294,-3.539c-0.126,-0.194 -0.083,-0.453 0.098,-0.597c6.312,-4.986 12.099,-7.021 17.339,-6.166c3.716,0.606 6.42,2.149 8.13,4.599c1.679,2.404 2.838,5.982 3.455,10.741c0.606,4.677 1.089,13.599 1.445,26.766c0.443,17.097 1.187,27.962 2.243,32.595c0.513,2.254 1.187,3.996 2.035,5.219c0.793,1.145 1.734,1.821 2.84,2.002c1.649,0.269 3.266,-0.061 4.851,-0.98c0.111,-0.064 0.245,-0.078 0.367,-0.037c0.122,0.04 0.221,0.131 0.272,0.25l1.61,3.778c0.09,0.213 0.005,0.46 -0.198,0.57c-4.355,2.376 -8.08,3.289 -11.164,2.786c-4.448,-0.726 -7.264,-3.515 -8.426,-8.393c-1.099,-4.619 -1.733,-16.559 -1.888,-35.823Zm-0.004,-0.477c-0.001,-0.126 -0.001,-0.252 -0.002,-0.378l0.13,0.13l0.058,-0.631l0.325,0.053l-0.047,0.653l0.006,-0.003c-0.002,0.002 -0.004,0.005 -0.006,0.008l-0.017,0.236l0.449,-0.453c0.142,19.657 0.761,31.816 1.87,36.477c1.064,4.469 3.621,7.049 7.697,7.714c2.843,0.464 6.249,-0.38 10.23,-2.494l-1.256,-2.946c-1.637,0.844 -3.305,1.123 -5.002,0.846c-1.329,-0.217 -2.48,-1 -3.434,-2.376c-0.899,-1.298 -1.627,-3.14 -2.172,-5.531c-1.062,-4.658 -1.819,-15.582 -2.265,-32.771c-0.355,-13.122 -0.834,-22.014 -1.438,-26.674c-0.594,-4.579 -1.685,-8.029 -3.3,-10.343c-1.582,-2.267 -4.101,-3.666 -7.539,-4.227c-4.945,-0.807 -10.376,1.124 -16.315,5.733l1.805,2.785c3.433,-2.589 6.766,-3.602 9.989,-3.076c3.676,0.6 6.138,2.662 7.388,6.188c1.197,3.381 2.154,9.059 2.857,17.038c0.01,0.109 -0.02,0.218 -0.085,0.306l-24.179,32.909c-4.057,5.559 -8.073,10.161 -12.048,13.807l-0.359,2.199l10.853,1.772c8.469,-13.098 16.984,-25.648 25.546,-37.649c-0.098,0.137 -0.111,0.317 -0.034,0.466c0.061,0.118 0.17,0.202 0.295,0.232Z" style="fill:#fff;"/>
            <path d="M45.642,110.647c2.654,-5.999 4.881,-13.096 6.679,-21.29l10.779,-48.363c-4.649,-8.462 -8.454,-14.267 -11.416,-17.416c-2.963,-3.148 -6.527,-4.185 -10.695,-3.11c-3.85,0.994 -7.027,3.844 -9.533,8.548l-4.276,-2.809c4.485,-8.453 9.785,-13.468 15.9,-15.046c4.257,-1.099 7.877,-0.741 10.857,1.074c2.981,1.816 5.947,5.168 8.901,10.058c2.952,4.89 7.837,14.548 14.652,28.973c8.868,18.822 15.024,30.555 18.469,35.197c3.444,4.643 6.616,6.59 9.515,5.842c2.083,-0.538 3.822,-1.759 5.214,-3.664l3.634,3.41c-3.584,4.645 -7.165,7.428 -10.743,8.352c-5.072,1.309 -9.368,-0.36 -12.887,-5.007c-3.519,-4.647 -10.171,-17.883 -19.958,-39.705l-0.408,0.105c-3.667,17.614 -7.012,35.82 -10.033,54.62l-13.792,3.56l-0.859,-3.329Z" style="fill:#ff3838;fill-rule:nonzero;"/>
            <path d="M70.628,56.552c-3.612,17.4 -6.909,35.379 -9.891,53.936c-0.029,0.176 -0.159,0.319 -0.332,0.363l-13.792,3.56c-0.24,0.062 -0.485,-0.082 -0.547,-0.322l-0.859,-3.33c-0.025,-0.098 -0.017,-0.201 0.024,-0.294c2.644,-5.974 4.86,-13.043 6.651,-21.204l0,-0.001l10.742,-48.198c-4.586,-8.336 -8.339,-14.063 -11.268,-17.176c-2.841,-3.019 -6.258,-4.014 -10.255,-2.983c-3.741,0.966 -14.167,5.679 -14.167,5.679c-0.194,-0.127 -0.259,-0.381 -0.15,-0.586c4.558,-8.591 9.968,-13.666 16.184,-15.27c4.393,-1.134 8.127,-0.748 11.203,1.126c3.028,1.844 6.051,5.242 9.051,10.209c2.957,4.897 7.85,14.568 14.674,29.013c8.849,18.78 14.987,30.49 18.424,35.122c1.68,2.265 3.289,3.877 4.836,4.827c1.466,0.9 2.866,1.193 4.206,0.847c1.984,-0.512 3.637,-1.68 4.963,-3.494c0.076,-0.104 0.193,-0.171 0.321,-0.182c0.128,-0.012 0.255,0.031 0.349,0.119l3.634,3.41c0.169,0.158 0.19,0.419 0.049,0.602c-3.661,4.744 -7.332,7.57 -10.987,8.513c-5.255,1.356 -9.712,-0.357 -13.357,-5.171c-3.49,-4.61 -10.063,-17.646 -19.706,-39.115Zm0.106,-0.412l0.41,-0.633c9.764,21.773 16.395,34.981 19.906,39.618c3.392,4.48 7.527,6.105 12.417,4.843c3.418,-0.882 6.826,-3.516 10.249,-7.87l-2.973,-2.789c-1.404,1.765 -3.125,2.906 -5.156,3.431c-1.559,0.402 -3.195,0.096 -4.901,-0.952c-1.624,-0.997 -3.323,-2.679 -5.087,-5.057c-3.453,-4.652 -9.627,-16.409 -18.515,-35.274c-6.806,-14.404 -11.682,-24.049 -14.631,-28.932c-2.906,-4.812 -5.816,-8.12 -8.75,-9.906c-2.885,-1.758 -6.39,-2.087 -10.511,-1.024c-5.926,1.53 -11.053,6.366 -15.422,14.462l3.525,2.316c2.54,-4.579 5.743,-7.349 9.582,-8.339c4.338,-1.12 8.049,-0.041 11.134,3.236c2.978,3.166 6.809,9 11.482,17.508c0.053,0.096 0.069,0.208 0.045,0.314l-10.779,48.362c-1.791,8.162 -4.006,15.239 -6.643,21.232l0.708,2.743l13.072,-3.374c3.01,-18.704 6.341,-36.821 9.99,-54.35c-0.027,0.132 0.006,0.27 0.092,0.375c0.085,0.105 0.213,0.165 0.348,0.165l-0.103,-0.886l0.398,-0.103l0.113,0.884Z" style="fill:#fff;"/>
            <path d="M64.467,53.918c3.528,17.182 7.534,34.74 12.018,52.676l0.248,0.992l-13.865,10.692l-3.486,-4.52l0.006,-0.544c0.084,-6.78 -0.69,-14.429 -2.314,-22.949l-9.442,-50.446c-7.592,-5.917 -13.375,-9.762 -17.37,-11.505c-3.585,-1.565 -6.919,-1.161 -10.003,1.217c-2.989,2.306 -4.625,6.014 -5.055,11.057l-0.146,1.707l-8.365,-1.496l0.119,-1.418c0.882,-10.537 4.19,-17.891 9.716,-22.153c4.036,-3.112 8.073,-4.324 12.077,-3.748c3.811,0.547 8.292,2.62 13.408,6.297c4.882,3.509 13.611,10.83 26.179,21.967c16.178,14.367 26.852,23.08 32.045,26.109c2.404,1.403 4.483,2.258 6.256,2.519c1.445,0.212 2.644,0.015 3.574,-0.702c1.503,-1.159 2.474,-2.763 2.943,-4.791l0.397,-1.723l7.9,2.878l-0.355,1.374c-1.647,6.373 -4.181,10.787 -7.464,13.319c-4.866,3.752 -10.267,3.996 -16.205,0.608c-5.046,-2.878 -15.993,-12.007 -32.816,-27.417Zm-2.208,-3.008l0.173,0.503l0.156,-0.191l0.331,-0.848c18.165,16.734 29.877,26.602 35.138,29.603c5.305,3.026 10.13,2.864 14.476,-0.488c3.066,-2.364 5.368,-6.521 6.905,-12.472l-4.905,-1.787c-0.556,2.409 -1.727,4.301 -3.512,5.678c-2.483,1.915 -6.341,1.347 -11.572,-1.705c-5.231,-3.051 -15.996,-11.815 -32.295,-26.29c-12.509,-11.085 -21.194,-18.374 -26.053,-21.867c-4.86,-3.492 -9.099,-5.499 -12.718,-6.019c-3.619,-0.521 -7.253,0.626 -10.9,3.439c-5.24,4.041 -8.277,11.056 -9.113,21.045l5.276,0.944c0.475,-5.564 2.36,-9.618 5.659,-12.162c3.571,-2.754 7.431,-3.224 11.582,-1.412c4.151,1.812 10.208,5.835 18.174,12.07l9.549,51.024c1.645,8.633 2.426,16.386 2.341,23.258l2.2,2.853l11.817,-9.113c-4.778,-19.115 -9.015,-37.803 -12.709,-56.063Z" style="fill:#fff;"/>
            <path d="M60.951,113.233c0.085,-6.872 -0.696,-14.625 -2.341,-23.258l-9.549,-51.024c-7.966,-6.235 -14.023,-10.258 -18.174,-12.07c-4.151,-1.812 -8.011,-1.342 -11.582,1.412c-3.299,2.544 -5.184,6.598 -5.659,12.162l-5.276,-0.944c0.836,-9.989 3.873,-17.004 9.113,-21.045c3.647,-2.813 7.281,-3.96 10.9,-3.439c3.619,0.52 7.858,2.527 12.718,6.019c4.859,3.493 13.544,10.782 26.053,21.867c16.299,14.475 27.064,23.239 32.295,26.29c5.231,3.052 9.089,3.62 11.572,1.705c1.785,-1.377 2.956,-3.269 3.512,-5.678l4.905,1.787c-1.537,5.951 -3.839,10.108 -6.905,12.472c-4.346,3.352 -9.171,3.514 -14.476,0.488c-5.304,-3.026 -17.166,-13.032 -35.587,-30.017l-0.349,0.269c3.727,18.477 8.009,37.391 12.847,56.744l-11.817,9.113l-2.2,-2.853Z" style="fill:#d338ff;fill-rule:nonzero;"/>
        </g>
    </g>
</svg>
